<?xml version="1.0" encoding="utf-8"?>
<!-- Generator: Adobe Illustrator 21.0.0, SVG Export Plug-In . SVG Version: 6.00 Build 0)  -->
<svg version="1.1" id="Layer_1" xmlns="http://www.w3.org/2000/svg" xmlns:xlink="http://www.w3.org/1999/xlink" x="0px" y="0px"
	 viewBox="0 0 500 500" style="enable-background:new 0 0 500 500;" xml:space="preserve">
<style type="text/css">
	.st0{fill:#FFFFFF;}
</style>
<g>
	<path class="st0" d="M171.8,276.8c9.7,13.2,20.9,24.8,35.3,33.1c16.4,9.3,34,12.2,52.5,11.3c8.7-0.4,11.3-2.7,11.7-11.3
		c0.3-5.9,1-11.8,3.9-17.1c2.9-5.2,7.2-6.2,12.2-3c2.5,1.6,4.6,3.7,6.6,5.9c4.9,5.3,9.6,10.9,14.7,16c6.4,6.5,13.9,10.3,23.4,9.5
		h36.7c5.9-0.4,9-7.6,5.6-14.3c-2.4-4.6-5.5-8.7-8.8-12.7c-7.5-9-16.3-16.7-24.7-24.8c-7.5-7.4-8-11.6-2-20.1
		c6.6-9.3,13.7-18.2,20.4-27.4c6.2-8.6,12.6-17.2,15.9-27.5c2.1-6.6,0.2-9.5-6.5-10.6c-1.2-0.2-2.4-0.2-3.5-0.2h-39.9
		c-4.9-0.1-7.6,2.1-9.4,6.4c-2.4,5.9-4.8,11.8-7.6,17.5c-6.3,12.9-13.4,25.4-23.4,35.9c-2.2,2.3-4.6,5.3-8.3,4.1
		c-4.6-1.7-5.9-9.2-5.8-11.8v-46.1c-0.9-6.6-2.4-9.5-8.9-10.8h-41.5c-5.5,0-8.3,2.2-11.3,5.6c-1.7,2-2.2,3.3,1.3,4
		c6.9,1.3,10.8,5.8,11.8,12.7c1.6,11,1.5,22.1,0.6,33.2c-0.3,3.2-0.8,6.4-2.1,9.5c-2,4.8-5.3,5.7-9.5,2.8c-3.8-2.6-6.5-6.4-9.2-10.1
		c-9.9-14.1-17.9-29.2-24.4-45.1c-1.9-4.6-5.1-7.4-10-7.5c-12-0.2-24-0.2-36,0c-7.2,0.1-9.3,3.6-6.4,10.2
		C138.3,222.9,152.8,251.1,171.8,276.8L171.8,276.8z"/>
	<path class="st0" d="M56,56v388h388V56H56z M420,420H80V80h340V420z"/>
</g>
</svg>
