<?xml version="1.0" encoding="utf-8"?>
<!-- Generator: Adobe Illustrator 21.0.0, SVG Export Plug-In . SVG Version: 6.00 Build 0)  -->
<svg version="1.1" id="Layer_1" xmlns="http://www.w3.org/2000/svg" xmlns:xlink="http://www.w3.org/1999/xlink" x="0px" y="0px"
	 viewBox="0 0 500 500" style="enable-background:new 0 0 500 500;" xml:space="preserve">
<style type="text/css">
	.st0{fill:#FFFFFF;}
</style>
<g>
	<path class="st0" d="M389.5,219.3c-4.9-1.4-10,1.4-11.4,6.3c-1.4,4.9,1.4,10,6.3,11.4c42,12,68.1,29.5,68.1,45.5
		c0,11.7-14.3,24.6-39.2,35.4c-27.4,11.8-66.3,20.4-109.5,24.3l-37.7-0.5c0,0-0.1,0-0.1,0c-5,0-9.1,4-9.2,9.1
		c-0.1,5.1,4,9.3,9.1,9.3l38.2,0.5c0,0,0.1,0,0.1,0c0.3,0,0.5,0,0.8,0c45.3-4,86.4-13.2,115.6-25.8c41.6-17.9,50.3-38.3,50.3-52.3
		C471,256.8,442.1,234.3,389.5,219.3L389.5,219.3z M389.5,219.3"/>
	<path class="st0" d="M118.2,208.8c-5.1,0-9.2,4.1-9.2,9.2s4.1,9.2,9.2,9.2h37.9v38.1h-37.9c-5.1,0-9.2,4.1-9.2,9.2
		c0,5.1,4.1,9.2,9.2,9.2h47.1c5.1,0,9.2-4.1,9.2-9.2v-113c0-5.1-4.1-9.2-9.2-9.2h-47.1c-5.1,0-9.2,4.1-9.2,9.2s4.1,9.2,9.2,9.2h37.9
		v38.1H118.2z M118.2,208.8"/>
	<path class="st0" d="M202.9,283.7h56.5c5.1,0,9.2-4.1,9.2-9.2V218c0-5.1-4.1-9.2-9.2-9.2h-47.3v-38.1H250c5.1,0,9.2-4.1,9.2-9.2
		s-4.1-9.2-9.2-9.2h-47.1c-5.1,0-9.2,4.1-9.2,9.2v113C193.7,279.6,197.8,283.7,202.9,283.7L202.9,283.7z M212.1,227.2h38.1v38.1
		h-38.1V227.2z M212.1,227.2"/>
	<path class="st0" d="M297.1,283.7h56.5c5.1,0,9.2-4.1,9.2-9.2v-113c0-5.1-4.1-9.2-9.2-9.2h-56.5c-5.1,0-9.2,4.1-9.2,9.2v113
		C287.9,279.6,292,283.7,297.1,283.7L297.1,283.7z M306.3,170.8h38.1v94.5h-38.1V170.8z M306.3,170.8"/>
	<path class="st0" d="M197.4,306.6c-3.3-3.9-9.1-4.4-13-1.1c-3.9,3.3-4.4,9.1-1.1,13l20.6,24.3c-43.5-3.3-82.8-11.3-111.8-22.7
		c-28.4-11.2-44.7-24.9-44.7-37.6c0-14.7,21.9-30.6,58.5-42.5c4.8-1.6,7.5-6.8,5.9-11.6c-1.6-4.8-6.8-7.5-11.6-5.9
		C78.9,229.4,62,237.6,50,246.9c-13.9,10.8-21,22.8-21,35.6c0,21.3,19.5,40.2,56.4,54.8c30,11.8,70.2,20.1,114.4,23.7l-18.4,20.4
		c-3.4,3.8-3.1,9.6,0.7,13c1.8,1.6,4,2.4,6.2,2.4c2.5,0,5-1,6.8-3l33.5-37.1c1.5-1.7,2.4-3.9,2.4-6.2v-0.7c0-2.2-0.8-4.3-2.2-5.9
		L197.4,306.6z M197.4,306.6"/>
	<path class="st0" d="M380.2,151.9h37.6c5.1,0,9.2-4.1,9.2-9.2V105c0-5.1-4.1-9.2-9.2-9.2h-37.6c-5.1,0-9.2,4.1-9.2,9.2v37.7
		C371,147.8,375.1,151.9,380.2,151.9L380.2,151.9z M389.4,114.2h19.2v19.2h-19.2V114.2z M389.4,114.2"/>
</g>
</svg>
