<?xml version="1.0" encoding="utf-8"?>
<!-- Generator: Adobe Illustrator 21.0.0, SVG Export Plug-In . SVG Version: 6.00 Build 0)  -->
<svg version="1.1" id="Layer_1" xmlns="http://www.w3.org/2000/svg" xmlns:xlink="http://www.w3.org/1999/xlink" x="0px" y="0px"
	 viewBox="0 0 500 500" style="enable-background:new 0 0 500 500;" xml:space="preserve">
<style type="text/css">
	.st0{fill:#FFFFFF;}
</style>
<path class="st0" d="M56,56v388h388V56H56z M420,420H80V80h340V420z"/>
<g>
	<path class="st0" d="M409.7,179.8c-1.8-2.5-4.6-3.9-7.6-4l-27.9-0.7l3.2-10.2c1.6-5.1-1.3-10.5-6.3-12.1L200,99.6
		c-5.1-1.6-10.5,1.3-12.1,6.3l-26.6,85.5c-1.6,5.1,1.3,10.5,6.3,12.1l34.7,10.8l-5.7,18.4c-0.8,2.4-0.5,5.1,0.7,7.4s3.2,4,5.7,4.7
		l15.7,4.9l-39.1,63.2c-5.7-2.5-11.9-3.9-18.5-3.9h-48.2c-5.3,0-9.6,4.3-9.6,9.6v72.6c0,5.3,4.3,9.6,9.6,9.6h48.2
		c25.3,0,45.9-20.6,45.9-45.9c0-11.8-4.5-22.6-11.8-30.7c0.2-0.2,0.4-0.5,0.5-0.7l42-67.9l20.5,6.4c1,0.3,1.9,0.4,2.9,0.4
		c4.1,0,7.9-2.7,9.2-6.8l5.7-18.4l62.7,19.5c0.9,0.3,1.9,0.4,2.9,0.4c1.6,0,3.1-0.4,4.5-1.1c2.3-1.2,4-3.2,4.7-5.7l3.2-10.2
		l23.4,15.2c1.6,1,3.4,1.6,5.3,1.6c1.1,0,2.2-0.2,3.3-0.6c2.8-1,5-3.3,5.9-6.2l19.2-61.8C411.9,185.4,411.4,182.2,409.7,179.8
		L409.7,179.8z M122.5,328.3h12.9v53.3h-12.9V328.3z M161.1,381.6h-6.4v-53.3h6.4c14.7,0,26.6,12,26.6,26.6
		C187.7,369.6,175.8,381.6,161.1,381.6L161.1,381.6z M254.7,240.7l-36.8-11.4l2.9-9.2l36.8,11.4L254.7,240.7z M335.2,235.4
		L182.6,188l20.9-67.1l152.6,47.4l-4.1,13.2l-12.7,40.8c0,0,0,0,0,0C339.3,222.2,335.2,235.4,335.2,235.4z M377.2,232.2L359.9,221
		l8.3-26.8l20.6,0.5L377.2,232.2L377.2,232.2z"/>
	<path class="st0" d="M205.3,167.1c-2.5,0-5,1-6.8,2.8c-1.8,1.8-2.8,4.3-2.8,6.8c0,2.5,1,5,2.8,6.8c1.8,1.8,4.3,2.8,6.8,2.8
		c2.5,0,5-1,6.8-2.8c1.8-1.8,2.8-4.3,2.8-6.8c0-2.5-1-5-2.8-6.8C210.3,168.1,207.8,167.1,205.3,167.1z"/>
</g>
</svg>
