<?xml version="1.0" encoding="utf-8"?>
<!-- Generator: Adobe Illustrator 21.0.0, SVG Export Plug-In . SVG Version: 6.00 Build 0)  -->
<svg version="1.1" id="design" xmlns="http://www.w3.org/2000/svg" xmlns:xlink="http://www.w3.org/1999/xlink" x="0px" y="0px"
	 viewBox="0 0 357.5 262" style="enable-background:new 0 0 357.5 262;" xml:space="preserve">
<style type="text/css">
	.st0{fill:#FFFFFF;}
</style>
<g>
	<path class="st0" d="M211.7,144l-0.7,1c0,0.2,0.1,16.1,0.1,26.4c0,5.2-4.5,17.4-7.7,17.6l-0.1,0c-3.3,0-8.1-10.3-8.1-15.9
		c0-11.3,0.3-24.6,0.3-24.7l-1.2-1c-7.8,1.3-12.1,1.9-16.7,2.5c-4.7,0.6-9.5,1.3-18.4,2.7l-0.6,1.6c1.2,1.5,2.6,2.9,4.1,4.4
		c4,3.9,8.1,7.9,8.1,15.9c0,11.2-0.7,44.2-0.7,44.6l1.1,1c0.3,0,8-0.5,23.7-5.1l0.7-1c-0.1-2.6-0.1-12.8-0.1-17.4l8.5,7.7l1.5-0.2
		l5.9-8.1V210l1.2,1l26.4-6.3l0.8-1v-66.6l-1.3-1L211.7,144z M238.7,203.7l-26.4,6.3v-17.2l-7.7,10.6l-10.2-9.2c0,0,0,16.3,0.2,19.7
		c-15.7,4.7-23.4,5.1-23.4,5.1s0.7-33.2,0.7-44.6c0-11.4-8.1-15.2-12.4-20.8c17.7-2.9,19.3-2.6,35.1-5.2c0,0-0.3,13.3-0.3,24.8
		c0,5.7,5,17.2,9.3,16.9c4.2-0.4,8.6-13.5,8.6-18.6c0-10.4-0.1-26.4-0.1-26.4l26.7-7.8V203.7z"/>
	<path class="st0" d="M78.4,147l-0.7,1.1c0,0.2,2.1,22.2,2.2,37.4c-20.4-5.3-20.3-28.8-20.3-29.8l-1.2-1c-0.2,0-18.3,3.1-36.5,6
		l-0.6,1.6c23.4,30.6,3.1,69.8,2.9,70.2l1,1.5c0.2,0,15.3-2.4,33.3-7.7l0.7-1.1c-2.2-16.2-0.5-32.3,0-36.3
		c2.3,0.3,8.8,1.9,14.6,10.7c7.2,10.8,4.2,19.3,4.2,19.3l1.2,1.3l28.4-6.6l0.8-1v-73l-1.3-1L78.4,147z M107.5,212.7L79,219.3
		c0,0,3.3-8.8-4.3-20.2c-7.6-11.4-16.3-11.2-16.3-11.2s-2.6,18.6-0.1,37.5c-18.1,5.4-33.1,7.7-33.1,7.7s21.1-39.8-3-71.3
		c18.4-3,36.5-6,36.5-6s-0.4,26.1,22.3,31.1c0-15.4-2.2-38.8-2.2-38.8l28.8-8.3V212.7z"/>
	<path class="st0" d="M147.7,224.3c-3.8,0-7.5-0.2-9.6-2.3c-1.6-1.6-2.3-4.3-2.2-8.3c0.1-3.5,1.6-3.5,2.2-3.5
		c3.2,0,8.6,4.5,10.5,6.2l1.7-0.7v-19.4l-1.5-0.9c0,0-5,3-8.9,3c-1.9,0-4.3-0.6-4.3-5.5c0-4.5,1.6-9.8,9.4-9.8
		c8.3,0,15.8,14.1,15.9,14.2l1.9-0.5v-33.8l-1.7-0.7c-4.8,4.5-7.4,5.4-9.8,5.4c-1.3,0-2.6-0.3-4.2-0.6c-2.2-0.4-5-1-8.7-1
		c-1.4,0-3,0.1-4.5,0.2c-15,1.6-21.6,11.3-21.6,31.5c0,41.9,24,48.2,38.4,48.2c3.5,0,6.5-0.4,8.4-0.7c4.1-0.7,4.1-0.9,4.1-1.7v-26.1
		l-1.7-0.7C161.3,217,154.2,224.3,147.7,224.3z M162.1,217.6v26.1c0,0-48.9,13.7-48.9-45.8c0-17.1,4.7-28.8,20.7-30.5
		c16.1-1.7,16.4,6.4,27.8-4.4v33.8c0,0-7.7-14.7-16.7-14.7c-9,0-10.4,6.7-10.4,10.8c0,12.4,14.7,3.4,14.7,3.4v19.4
		c0,0-14.1-13.1-14.4-2c-0.3,11,5.7,11.7,12.7,11.7C154.7,225.3,162.1,217.6,162.1,217.6z"/>
	<path class="st0" d="M339.5,129.3c-11.3-4.2-22.2-6.4-32.3-6.4c-33,0-47.9,22.8-48.1,23.1l1.3,1.4c10.9-5.2,21.9-7.9,32.8-7.9
		c18.2,0,29.7,7.5,29.9,7.6l1.2-0.1c0.1-0.1,9.5-8.4,15.7-16.2L339.5,129.3z M323.5,146.3c0,0-26.6-17.6-63.6,0.2
		c0,0,23.7-37,79.2-16.3C332.9,138.1,323.5,146.3,323.5,146.3z"/>
	<path class="st0" d="M279.5,117.7l-0.3-1.7c0,0-5.1-1.7-12-4.7l-1.1,0.2c-5.8,5.8-10.8,26.7-11,27.6l1.8,0.7
		C261.8,131.7,279.3,117.8,279.5,117.7z M266.8,112.2c7,3,12.1,4.7,12.1,4.7s-17.7,14.1-22.8,22.4
		C256.1,139.3,261.1,117.9,266.8,112.2z"/>
	<path class="st0" d="M284.2,144.7c-22.7,0-41.2,18.1-41.2,40.3c0,22.2,18.5,40.3,41.2,40.3c22.7,0,41.2-18.1,41.2-40.3
		C325.4,162.8,306.9,144.7,284.2,144.7z M284.2,224.3c-22.2,0-40.2-17.6-40.2-39.3c0-21.7,18-39.3,40.2-39.3
		c22.2,0,40.2,17.6,40.2,39.3C324.4,206.7,306.4,224.3,284.2,224.3z"/>
	<path class="st0" d="M293.6,163.1c-8-4.3-15.1-4.3-15.1-4.3l-5.7,33.8l32.5-19.4C305.3,173.1,301.6,167.4,293.6,163.1z
		 M274.2,190.6l5.2-30.8c2.1,0.2,7.6,0.9,13.7,4.2c5.9,3.2,9.4,7.2,10.7,8.9L274.2,190.6z"/>
</g>
<g>
	<path class="st0" d="M344.5,121c-21.8-8.2-39.4-8.1-52.8-5c-0.7-3.9-3.5-7.1-7.3-8.4c0,0-4.7-1.6-11.1-4.3
		c-4.1-1.8-8.9-0.8-12.1,2.3c-5.4,5.4-9.4,16.8-11.8,25.3c-0.5-0.6-1-1.1-1.6-1.5c-2.8-2.1-6.4-2.7-9.7-1.8l-26.5,7.7
		c-3.1,0.9-5.5,3.1-6.8,5.8c-0.1-0.1-0.1-0.2-0.2-0.2c-2.5-2.1-5.8-3.1-9-2.5c-7.6,1.3-11.8,1.8-16.2,2.4c-4.7,0.6-9.6,1.3-18.5,2.8
		c-3.8,0.6-7,3.2-8.5,6.8c-1,2.5-1,5.3-0.2,7.7c-3.4-0.7-8.4-1.6-16-0.8c-5.8,0.6-10.4,2.2-14,4.3v-20.8c0-3.5-1.6-6.7-4.4-8.8
		c-2.8-2.1-6.3-2.7-9.7-1.8l-28.5,8.2c-4.8,1.4-8,5.7-8,10.6c0,0.3,0,0.7,0,1c0,0,0,0.1,0,0.3c-0.5-0.7-1.1-1.4-1.8-2
		c-2.5-2.1-5.8-3.1-9-2.5l-36.1,6c-3.8,0.6-7,3.2-8.5,6.8c-1.4,3.6-0.9,7.7,1.5,10.8c19.2,25,2.2,58.5,2,58.8
		c-1.9,3.7-1.6,8.2,0.8,11.5c2.4,3.4,6.5,5.1,10.6,4.5c0.6-0.1,15.9-2.5,34.3-7.9c4.7-1.4,7.9-5.7,7.9-10.6c0-0.3,0-0.6-0.1-0.9
		c0.4,0.8,0.9,1.6,1.5,2.2c2.7,3,6.7,4.4,10.6,3.5l24.2-5.6c2.8,8.4,7.1,15.2,13,20.4c8.1,7.2,18.9,11,31.2,11c3.3,0,6.7-0.3,10-0.8
		l3-0.6c8.7-2,9.4-8.9,9.4-11v-13.7c3.1-0.3,11.2-1.5,24.3-5.3c3.3-1,5.8-3.4,7-6.4c0.2,0.2,0.4,0.4,0.6,0.6
		c2.6,2.1,6.1,2.9,9.4,2.1l26.2-6.2c0.4-0.1,0.8-0.2,1.1-0.3c9.2,12.7,24.3,21.1,41.4,21.1c28,0,50.9-22.4,50.9-50
		c0-10.3-3.2-19.9-8.6-27.8c1.4-0.4,2.8-1.2,4-2.2c0.4-0.4,10.1-8.9,16.8-17.3c2.2-2.8,3-6.4,2-9.8C350.3,125,347.8,122.3,344.5,121
		z M348.5,137.6c-6.7,8.4-16.6,17.1-16.7,17.2c-1,0.9-2.3,1.6-3.6,2l-0.5,1.5c5.5,8.1,8.4,17.5,8.4,27.3c0,27-22.4,49-49.9,49
		c-16.1,0-31.2-7.7-40.6-20.6l-1.1-0.4c-0.3,0.1-0.7,0.2-1,0.3l-26.2,6.2c-0.8,0.2-1.5,0.3-2.3,0.3c-2.2,0-4.5-0.8-6.2-2.2
		c-0.1-0.1-0.2-0.2-0.2-0.2c-0.1-0.1-0.2-0.2-0.3-0.3l-1.6,0.4c-1.2,2.8-3.5,4.9-6.4,5.8c-13.2,3.9-21.3,5-24.1,5.3l-0.9,1v13.7
		c0,1.9-0.6,8.2-8.6,10l-3,0.6c-3.2,0.5-6.5,0.8-9.8,0.8c-12.1,0-22.6-3.7-30.6-10.8c-5.7-5.1-10-11.8-12.7-20l-1.2-0.7l-24.2,5.6
		c-0.7,0.2-1.4,0.2-2.1,0.2c-2.8,0-5.5-1.2-7.5-3.4c-0.5-0.5-0.9-1.2-1.4-2l-1.9,0.5l0,0.2c0,0.2,0,0.4,0,0.6c0,4.4-3,8.4-7.2,9.6
		c-17.7,5.2-32.5,7.7-34.2,7.9c-0.5,0.1-1,0.1-1.5,0.1c-3.2,0-6.3-1.6-8.1-4.2c-2.2-3.1-2.5-7.1-0.7-10.5
		c0.7-1.4,17.3-34.6-2.1-59.9c-2.1-2.8-2.6-6.5-1.4-9.8c1.3-3.3,4.2-5.6,7.7-6.2l36.1-6c0.5-0.1,1.1-0.1,1.6-0.1
		c2.4,0,4.7,0.9,6.6,2.4c0.6,0.5,1.1,1.1,1.6,1.8l1.8-0.7l0-0.3c0-0.3,0-0.6,0-0.9c0-4.4,3-8.4,7.3-9.6l28.5-8.2
		c0.9-0.3,1.8-0.4,2.8-0.4c2.2,0,4.3,0.7,6,2c2.5,1.9,4,4.9,4,8v20.8l1.5,0.9c3.9-2.3,8.5-3.7,13.6-4.2c1.9-0.2,3.7-0.3,5.5-0.3
		c4.6,0,8,0.7,10.3,1.1l1.1-1.3c-0.8-2.3-0.7-4.8,0.1-7c1.3-3.3,4.2-5.6,7.7-6.2c8.9-1.4,13.7-2.1,18.3-2.7l0.2,0
		c4.2-0.6,8.5-1.2,16.3-2.4c0.5-0.1,1.1-0.1,1.6-0.1c2.4,0,4.7,0.9,6.6,2.5c0.1,0.1,0.1,0.1,0.2,0.2l1.6-0.3
		c1.2-2.6,3.5-4.5,6.2-5.3l26.5-7.7c0.9-0.3,1.8-0.4,2.8-0.4c2.2,0,4.3,0.7,6,2c0.5,0.4,1,0.8,1.5,1.4l1.7-0.4
		c2.4-8.5,6.3-19.7,11.5-24.9c1.9-1.9,4.4-2.9,7.1-2.9c1.4,0,2.7,0.3,3.9,0.8c5.6,2.4,9.9,3.9,11.2,4.4c3.4,1.1,6,4.1,6.7,7.6
		l1.2,0.8c5.4-1.3,11.2-1.9,17-1.9c11.1,0,23,2.3,35.2,6.9c3,1.1,5.3,3.6,6.2,6.7C351.1,131.8,350.5,135.1,348.5,137.6z"/>
	<path class="st0" d="M354.2,127.6c-1.2-4.3-4.4-7.9-8.6-9.4c-12.6-4.7-24.9-7.1-36.6-7.1c-5.2,0-10.3,0.5-15.2,1.4
		c-1.6-3.7-4.6-6.5-8.5-7.7c-1.1-0.4-5.2-1.8-10.9-4.2c-1.8-0.8-3.6-1.1-5.5-1.1c-3.8,0-7.3,1.5-9.9,4.1c-5,5-8.9,14.7-11.3,22.3
		c-2-1.1-4.3-1.7-6.6-1.7c-1.3,0-2.6,0.2-3.9,0.6l-26.5,7.7c-2.6,0.8-5,2.3-6.8,4.4c-2-1.1-4.3-1.7-6.6-1.7c-0.8,0-1.5,0.1-2.3,0.2
		c-7.6,1.3-11.9,1.8-16.2,2.4l-0.3,0c-4.7,0.6-9.5,1.3-18.3,2.7c-4.9,0.8-9,4.1-10.8,8.7c-0.6,1.6-1,3.4-1,5.1
		c-2.3-0.3-4.5-0.5-6.8-0.5c-1.9,0-3.9,0.1-5.9,0.3c-3.8,0.4-7.4,1.2-10.7,2.5v-16c0-4.4-2.1-8.6-5.6-11.2c-2.4-1.8-5.4-2.8-8.5-2.8
		c-1.3,0-2.6,0.2-3.9,0.5l-28.5,8.2c-4.4,1.3-7.9,4.6-9.4,8.8c-2.1-1.1-4.3-1.7-6.7-1.7c-0.8,0-1.5,0.1-2.3,0.2l-36.1,6
		c-4.9,0.8-9,4.1-10.8,8.7c-1.8,4.6-1.1,9.8,1.9,13.7c17.8,23.3,1.9,55.3,1.7,55.6c-2.5,4.7-2.1,10.4,1,14.7
		c2.6,3.7,6.9,5.9,11.4,5.9c0.7,0,1.4-0.1,2.2-0.2c1.6-0.3,16.6-2.7,34.7-8c4-1.2,7.2-4.1,8.9-7.8c2.3,1.6,5.1,2.4,7.8,2.4
		c1,0,2-0.1,3-0.3l21.5-5c3,7.7,7.3,14.1,12.9,19.1c8.7,7.7,20.2,11.8,33.2,11.8c3.5,0,7.1-0.3,10.6-0.9l3.1-0.6
		c10.9-2.5,11.8-11.3,11.8-13.9v-11c4.5-0.7,11.8-2.1,22.1-5.1c2.8-0.8,5.3-2.5,7.1-4.9c2,1,4.2,1.6,6.5,1.6c1.1,0,2.2-0.1,3.3-0.4
		l25.5-6.1c10.2,12.9,26.1,20.6,42.6,20.6c29.7,0,53.9-23.8,53.9-53.1c0-9.3-2.5-18.5-7.2-26.5c0.6-0.4,1.1-0.8,1.6-1.2
		c0.1-0.1,10.2-8.9,17.2-17.7C354.4,136.6,355.4,131.9,354.2,127.6z M350.8,139.5c-6.9,8.6-17,17.5-17.1,17.6
		c-0.7,0.6-1.5,1.2-2.3,1.6c5,8.1,7.6,17.4,7.6,26.9c0,28.7-23.7,52.1-52.9,52.1c-16.5,0-32.2-7.7-42.2-20.7l-26.1,6.2
		c-1,0.2-2,0.4-3,0.4c-2.4,0-4.8-0.7-6.8-1.9c-1.7,2.5-4.2,4.3-7.1,5.2c-11.3,3.3-18.9,4.7-22.9,5.2v11.9c0,2.4-0.8,10.6-11,13
		l-3.1,0.6c-3.4,0.6-6.9,0.9-10.4,0.9c-12.8,0-24.1-4-32.6-11.5c-5.7-5-10-11.6-13-19.5l-22.4,5.2c-0.9,0.2-1.9,0.3-2.8,0.3
		c-3,0-5.9-1.1-8.3-3c-1.3,4-4.6,7.3-8.7,8.5c-18,5.3-32.9,7.7-34.5,8c-0.7,0.1-1.4,0.2-2,0.2c-4.2,0-8.2-2-10.6-5.5
		c-2.9-4-3.3-9.3-1-13.7c0.2-0.3,16.5-32.8-1.8-56.7c-2.8-3.6-3.5-8.5-1.8-12.8c1.7-4.2,5.5-7.3,10-8.1l36.1-6
		c0.7-0.1,1.4-0.2,2.1-0.2c2.6,0,5.1,0.8,7.3,2.2c1.1-4.5,4.5-8.1,9.1-9.3l28.5-8.2c1.2-0.3,2.4-0.5,3.6-0.5c2.8,0,5.6,0.9,7.9,2.6
		c3.3,2.5,5.2,6.4,5.2,10.4v17.5c3.6-1.6,7.5-2.6,11.8-3c2-0.2,3.9-0.3,5.8-0.3c3.2,0,5.9,0.3,7.8,0.6c-0.2-2,0.1-4,0.9-5.9
		c1.7-4.2,5.5-7.3,10-8.1c8.9-1.4,13.7-2.1,18.3-2.7l0.3,0c4.2-0.6,8.5-1.1,16.2-2.4c0.7-0.1,1.4-0.2,2.1-0.2c2.4,0,4.8,0.7,6.9,2
		c1.7-2.3,4.1-4,6.8-4.8l26.5-7.7c1.2-0.3,2.4-0.5,3.6-0.5c2.5,0,5.1,0.8,7.2,2.2c2.5-8,6.3-18,11.4-23.1c2.5-2.5,5.7-3.8,9.2-3.8
		c1.8,0,3.5,0.4,5.1,1.1c5.6,2.4,9.8,3.9,10.9,4.3c3.8,1.3,6.8,4.2,8.2,7.9c5.1-1,10.4-1.6,15.8-1.6c11.5,0,23.7,2.4,36.2,7.1
		c3.9,1.5,6.9,4.7,8,8.8C354.3,131.9,353.4,136.3,350.8,139.5z"/>
</g>
<g>
	<path class="st0" d="M209.9,70.6l-1,0.4c0,0-3.7,4.8-13.9,9.9l0.3,1.9c4.4,0.7,8.5,1,12.1,1c0,0,0,0,0,0c17,0,18.9-7.8,19-8.1
		l-0.7-1.2L209.9,70.6z M195.4,81.7c10.5-5.2,14.3-10.1,14.3-10.1l15.7,3.8C225.4,75.4,223,86,195.4,81.7z"/>
	<path class="st0" d="M251.9,92.4c-1.8-1-3.3-1.5-4.5-2c-1.9-0.7-2.1-0.8-2.2-1.2c0-0.3,0.4-1.3,0.6-1.8c1.3-3.6,3.4-9.7-1.5-19.8
		c-6.3-12.9-10.4-14.7-17.2-17.7l-1.4-0.6c-3.2-1.5-6.4-2.7-9.6-3.8c-6.2-2.3-12.7-4.8-14.2-7.8c-1.2-2.4-1.6-5-2.1-7.5
		c-0.6-3.3-1.2-6.5-3.2-9c-0.5-0.6-1-1.5-1.6-2.5c-2.6-4.5-6.6-11.3-18.4-14.4l-3.2-0.8L172,4.5l0.7,3.3c0.8,3.4,2.6,11.5,0.4,14.3
		c-0.3,0.2-1.9,0.9-10.1,0.9c-2.6,0-5.4-0.1-8.3-0.1l-0.2,0c-3-0.1-6-0.1-8.9-0.1c-4.5,0-7.7,0.2-10.3,0.5
		c-11.1,1.6-35.7,9.3-46.8,16.4c-7.2,4.6-24.9,16.5-32.9,27c-2.8,3.6-5.3,8.1-7.8,12.4c-3.7,6.5-7.5,13.1-11.8,16.7
		c-3.3,2.7-9.1,4.5-14.4,4.5c-2.5,0-8.5-0.4-10.1-4.5l-1.7-4.5L7.9,91l-2,4.4L5.6,96c-1.6,3.4-5.4,11.3,2.1,19.1
		c3.8,3.9,10.5,8.2,17.7,8.2c4.2,0,8-1.4,11.2-4.2c0.1,5.4,2,12.1,9,17.2c4.9,3.5,9.8,5.3,14.7,5.3c6.7,0,10.8-3.4,11-3.6l2.8-2.3
		l-0.3-1.7l-3.5-1.1c-0.5-0.2-11.5-4-12.6-19.6C56.4,96.9,75.7,87.9,81,87c0.6-0.1,1.2-0.2,1.8-0.3l0.2,0c3-0.6,6.7-1.3,11.3-1.3
		c7.5,0,15.7,1.9,25,5.7c3.8,1.6,7.5,3.2,11.5,5.1c-4,4.5-7,9.6-9.1,15.1l-1.1,3l1,1.3l3.2-0.3c5.6-0.5,15.8-2.8,30.4-6.8
		c5.3,2.7,12.2,6,19.8,9c7.9,3,14.5,4.5,20.9,4.5c3.1,0,5.7-0.3,7.9-0.6c1.8-0.2,3.3-0.4,4.7-0.4c0.3,0,0.6,0,1,0
		c2.1,0.1,4.6,0.4,7.3,0.7c4.8,0.6,10.3,1.2,15.3,1.2c2.4,0,4.5-0.1,6.3-0.4c10.2-1.7,11.6-8.5,11.7-8.8l0.4-1.9l-0.8-1.2L248,110
		c-8.2-1.9-14.7-5.5-19.2-8.8c0,0,0.1,0.1,0.1,0.1c1,0.5,2.1,1.2,3.7,1.9c4.3,1.9,7.5,2.7,10.6,2.7c1.8,0,3.6-0.3,5.6-0.8
		c4.1-1.1,6.7-3.5,7-6.4C256.1,97.3,255.8,94.5,251.9,92.4z M254.9,98.6c-0.3,2.4-2.6,4.5-6.3,5.5c-1.9,0.5-3.6,0.8-5.3,0.8
		c-3,0-6.1-0.8-10.2-2.7c-1.5-0.7-2.6-1.3-3.6-1.8c-1.8-1-3.1-1.7-5.9-2.2c5.6,5.1,14.1,10.4,24.2,12.7l1.9,0.4l-0.4,1.9
		c0,0.3-1.3,6.4-10.8,8c-1.8,0.3-3.8,0.4-6.1,0.4c-4.9,0-10.4-0.6-15.2-1.2c-2.7-0.3-5.3-0.6-7.4-0.8c-0.4,0-0.7,0-1.1,0
		c-1.5,0-3.1,0.2-4.9,0.4c-2.2,0.3-4.8,0.6-7.8,0.6c-6.3,0-12.8-1.4-20.6-4.4c-7.6-2.9-14.4-6.2-20.1-9.1c-14.7,4-25,6.3-30.6,6.9
		l-3.2,0.3l1.1-3c2.1-5.8,5.4-11.1,9.8-15.8c-4.5-2.1-8.6-4-12.7-5.7c-9.5-3.9-17.8-5.8-25.4-5.8c-4.8,0-8.5,0.7-11.5,1.3
		c-0.7,0.1-1.4,0.3-2,0.4c-5.5,1-25.4,10.3-24.1,27.4c1.2,16.3,12.8,20.3,13.3,20.5l3.5,1.1l-2.8,2.3c-0.2,0.1-4,3.3-10.3,3.3
		c-4.7,0-9.4-1.7-14.1-5.1c-7.7-5.6-9-13.1-8.5-18.9c-3.3,3.7-7.6,5.6-12.3,5.6c-6.9,0-13.3-4.1-17-7.9c-7-7.3-3.6-14.5-1.9-18
		l0.3-0.7l2-4.4l1.7,4.5c1.8,4.7,8.3,5.2,11.1,5.2c5.6,0,11.6-1.9,15-4.7c4.4-3.6,8.3-10.4,12-16.9c2.5-4.3,5-8.7,7.7-12.3
		C64.2,56.9,81.8,45,89,40.4c11.1-7.1,35.4-14.6,46.5-16.3c2.5-0.4,5.7-0.5,10.1-0.5c2.9,0,6,0.1,9,0.1c3,0.1,5.8,0.1,8.4,0.1
		c8.6,0,10.4-0.8,10.8-1.2c2.6-3.1,0.8-11.3-0.1-15.2L173,4.3l3.2,0.8C187.6,8,191.4,14.6,194,19c0.6,1,1.1,2,1.6,2.6
		c1.9,2.3,2.4,5.4,3,8.6c0.5,2.6,1,5.3,2.2,7.8c1.7,3.4,8,5.8,14.7,8.3c3.1,1.2,6.3,2.4,9.5,3.8c0.5,0.2,1,0.4,1.5,0.6
		c6.6,2.9,10.5,4.6,16.7,17.2c4.8,9.7,2.7,15.6,1.5,19.1c-0.3,0.9-0.7,2-0.6,2.3c0.3,1,0.7,1.2,2.8,2c1.2,0.4,2.7,1,4.4,1.9
		C254.8,95.1,255,97.4,254.9,98.6z"/>
	<path class="st0" d="M250.4,94.6c-4.5-2.5-7.3-1.9-8.2-5.1c-0.9-3.2,5.5-8.2-0.8-21.1c-6.3-12.8-9.9-13.7-17.1-16.9
		c-10.7-4.8-22.4-7.3-25.2-13.1c-2.8-5.8-2.1-12.3-5-16c-2.9-3.6-5-12.4-18.3-15.8c1.2,5.2,2.9,13.2-0.3,17
		c-3.2,3.8-28.1,0.4-39.6,2.1c-11.4,1.7-35.2,9.3-45.7,16C79.6,48.4,64.7,59.2,58,68c-6.7,8.8-12.3,23.2-20,29.6
		c-7.8,6.4-25.7,7.9-29.3-1.3c-1.4,3.1-5.3,9.7,1.2,16.3c6.5,6.7,19.4,11.9,27.6,0.7c8.2-11.3,13.9-20.8,21-32
		c7.1-11.2,20.8-21.5,34.6-26.6c13.8-5.1,27.7-7.8,38.1-7.3c10.3,0.5,30.2,5.3,38.2,8.3c7.9,3,33.2,11.6,33.2,11.6
		s-8.6,5.4-20.3,5.4c-11.7-0.1-25.4-7.8-45.1-13.9c-19.6-6.2-47.3,3-62.8,12.5c16.3-2.5,43.1-11.4,85.8,8.7
		c-7.2,2.9-27.7,11.1-35.4,31.8c8.4-0.8,26.9-5.8,41.5-10c14.6-4.2,20.8-4.7,31.6-6c10.7-1.3,20.7-0.4,20.7-0.4
		c9.9,0.4,9.8,2.1,15.5,4.6c5.7,2.6,9.4,3.1,14.2,1.8C252.9,100.4,254.8,97.1,250.4,94.6z M247.8,100.8c-1.6,0.5-3.1,0.7-4.5,0.7
		c-2.6,0-5.2-0.7-9-2.4c-1.4-0.6-2.5-1.2-3.4-1.7c-2.9-1.6-4.9-2.7-12.4-3c-0.1,0-3.5-0.3-8.4-0.3c-4.4,0-8.6,0.2-12.5,0.7l-2.6,0.3
		c-9.1,1.1-15.7,1.9-29.2,5.7c-10.9,3.2-30,8.4-39.7,9.8c7.9-19.1,26.9-26.8,34.1-29.7l0.1,0l0.1-1.8c-18.5-8.7-35.8-12.9-53.1-12.9
		c-10.8,0-19.7,1.7-26.9,3c-0.2,0-0.5,0.1-0.7,0.1c11.1-5.8,27.4-11.5,42.9-11.5c5.2,0,9.9,0.7,14,2c7,2.2,13.3,4.6,18.9,6.8
		c10.5,4,18.7,7.2,26.4,7.2l0.3,0c11.8,0,20.3-5.3,20.6-5.5l-0.2-1.8c-0.3-0.1-25.3-8.6-33.1-11.6c-7.7-2.9-27.6-7.8-38.5-8.4
		c-0.9,0-1.7-0.1-2.7-0.1c-10,0-23.1,2.7-35.8,7.4c-14.2,5.2-28,15.8-35.1,27c-1.7,2.7-3.4,5.3-5,7.9c-5,8-9.8,15.5-16,24
		c-3,4.1-6.8,6.2-11.3,6.2c-6,0-11.6-3.6-14.8-6.9c-5-5.1-3.4-10.1-1.9-13.4c2.3,3.4,6.9,5.3,12.9,5.3c6.3,0,13-2.1,17-5.4
		c4.9-4,8.9-11,12.7-17.8c2.4-4.2,4.9-8.6,7.5-12c7.8-10.2,26.4-22.5,31.9-26c10-6.4,33.2-14.1,45.3-15.8c2.3-0.3,5.4-0.5,9.7-0.5
		c2.9,0,5.9,0.1,8.9,0.1c2.9,0.1,5.8,0.1,8.5,0.1c8,0,11.7-0.6,13.1-2.2c3.3-3.8,2-11.3,0.9-16.2c8.9,2.8,12,8.1,14.3,12
		c0.7,1.1,1.2,2.1,1.9,3c1.4,1.7,1.9,4.3,2.4,7.2c0.5,2.7,1.1,5.7,2.5,8.5c2.2,4.5,8.8,6.9,16.4,9.8c3.1,1.2,6.2,2.3,9.3,3.7
		c0.5,0.2,1,0.4,1.5,0.7c6.1,2.7,9.5,4.2,15.2,15.8c4.2,8.6,2.5,13.5,1.4,16.7c-0.5,1.6-1,2.9-0.7,4.2c0.7,2.6,2.6,3.2,4.7,4
		c1.2,0.4,2.5,0.9,4,1.7c0.8,0.4,2.1,1.3,2,2.4C251.8,98.8,250.5,100.1,247.8,100.8z"/>
</g>
</svg>
