<?xml version="1.0" encoding="utf-8"?>
<!-- Generator: Adobe Illustrator 21.0.0, SVG Export Plug-In . SVG Version: 6.00 Build 0)  -->
<svg version="1.1" id="Layer_1" xmlns="http://www.w3.org/2000/svg" xmlns:xlink="http://www.w3.org/1999/xlink" x="0px" y="0px"
	 viewBox="0 0 500 500" style="enable-background:new 0 0 500 500;" xml:space="preserve">
<style type="text/css">
	.st0{fill:#FFFFFF;}
</style>
<path class="st0" d="M56,56v388h388V56H56z M420,420H80V80h340V420z"/>
<g>
	<path class="st0" d="M314.6,124H189.7c-35,0-63.6,28.5-63.6,63.6v124.8c0,35.1,28.5,63.6,63.6,63.6h124.8
		c35.1,0,63.6-28.5,63.6-63.6V187.6C378.1,152.5,349.6,124,314.6,124z M350.7,312.4c0,19.9-16.2,36.1-36.1,36.1H189.7
		c-19.9,0-36.1-16.2-36.1-36.1V187.6c0-19.9,16.2-36.1,36.1-36.1h124.8c19.9,0,36.1,16.2,36.1,36.1V312.4z"/>
	<path class="st0" d="M319.1,198.5c-8.5,0-15.4-6.9-15.4-15.4c0-8.5,6.9-15.4,15.4-15.4c8.5,0,15.4,6.9,15.4,15.4
		C334.5,191.6,327.6,198.5,319.1,198.5L319.1,198.5z"/>
	<path class="st0" d="M252.1,185.1c-35.8,0-64.9,29.1-64.9,64.9c0,35.8,29.1,64.9,64.9,64.9c35.8,0,64.9-29.1,64.9-64.9
		C317,214.2,287.9,185.1,252.1,185.1z M252.1,287.5c-20.7,0-37.5-16.8-37.5-37.5c0-20.7,16.8-37.5,37.5-37.5
		c20.7,0,37.5,16.8,37.5,37.5C289.6,270.7,272.8,287.5,252.1,287.5z"/>
</g>
</svg>
