<?xml version="1.0" encoding="utf-8"?>
<!-- Generator: Adobe Illustrator 21.0.0, SVG Export Plug-In . SVG Version: 6.00 Build 0)  -->
<svg version="1.1" id="Layer_1" xmlns="http://www.w3.org/2000/svg" xmlns:xlink="http://www.w3.org/1999/xlink" x="0px" y="0px"
	 viewBox="0 0 500 500" style="enable-background:new 0 0 500 500;" xml:space="preserve">
<style type="text/css">
	.st0{fill:#3D668B;}
</style>
<g>
	<path class="st0" d="M296,346.6c33-54.8,74.8-131.8,74.8-171.4c0-66.8-54.3-121.1-121.1-121.1c-66.8,0-121.1,54.3-121.1,121.1
		c0,39.6,41.8,116.6,74.8,171.4c-39.2,3-128.4,13.6-128.4,48.9c0,34.7,90.6,50.6,174.8,50.6c84.2,0,174.8-15.8,174.8-50.6
		C424.5,360.2,335.2,349.5,296,346.6z M303.6,173.9c0,29.8-24.1,53.9-53.9,53.9c-29.8,0-53.9-24.1-53.9-53.9
		c0-29.8,24.1-53.9,53.9-53.9C279.5,119.9,303.6,144.1,303.6,173.9z M249.7,429.3c-102.3,0-158.1-22.4-158.1-33.9
		c0-8.9,36.8-28,121.6-32.9c15.9,25.7,28,43.8,29.6,46c2.2,2.9,8.5,6.3,13.8,0c1.7-2,13.7-20.3,29.6-46
		c84.8,4.9,121.6,23.9,121.6,32.9C407.8,407,352,429.3,249.7,429.3z"/>
	<path class="st0" d="M212.8,173.9c0,20.4,16.5,36.9,36.9,36.9c20.4,0,36.9-16.5,36.9-36.9c0-20.4-16.5-36.9-36.9-36.9
		C229.3,137,212.8,153.5,212.8,173.9z"/>
</g>
</svg>
