<?xml version="1.0" encoding="utf-8"?>
<!-- Generator: Adobe Illustrator 21.0.0, SVG Export Plug-In . SVG Version: 6.00 Build 0)  -->
<svg version="1.1" id="design" xmlns="http://www.w3.org/2000/svg" xmlns:xlink="http://www.w3.org/1999/xlink" x="0px" y="0px"
	 viewBox="0 0 320 119.3" style="enable-background:new 0 0 320 119.3;" xml:space="preserve">
<style type="text/css">
	.st0{fill:#FFFFFF;}
</style>
<g>
	<path class="st0" d="M71.8,13.5h11.5L74,20.5l3.6,11l-9.2-6.8l-9.2,6.8l3.6-11l-9.3-6.9h11.4l3.5-10.7L71.8,13.5z"/>
	<path class="st0" d="M116.6,13.5H128l-9.2,6.9l3.6,11l-9.2-6.8l-9.2,6.8l3.6-11l-9.3-6.9h11.4l3.5-10.7L116.6,13.5z"/>
	<path class="st0" d="M161.4,13.5h11.5l-9.2,6.9l3.6,11l-9.2-6.8l-9.2,6.8l3.6-11l-9.3-6.9h11.4L158,2.8L161.4,13.5z"/>
	<path class="st0" d="M206.2,13.5h11.5l-9.2,6.9l3.6,11l-9.2-6.8l-9.2,6.8l3.6-11l-9.3-6.9h11.4l3.5-10.7L206.2,13.5z"/>
	<path class="st0" d="M251,13.5h11.5l-9.2,6.9l3.6,11l-9.2-6.8l-9.2,6.8l3.6-11l-9.3-6.9h11.4l3.5-10.7L251,13.5z"/>
</g>
<g>
	<g>
		<path class="st0" d="M13.6,50.4c9.1,0,11.4,4.7,11.4,9.2c0,5.6-4.2,7.3-6.6,7.9v0.1c1.7,0.4,2.7,1.7,3.5,3.6l5.5,13.2h-7.7
			l-4.4-10.8c-0.8-2-2.1-3.2-4.4-3.2H8.4v14H1.5v-34H13.6z M8.4,65.1h3.7c4.4,0,5.8-2.7,5.8-4.7c0-1.1-0.3-4.6-5.8-4.6H8.4V65.1z"/>
		<path class="st0" d="M51.9,50.4v6H38.5v7.7h12.2v5.6H38.5v8.7h13.4v6H31.6v-34H51.9z"/>
		<path class="st0" d="M57.2,77.2c2.7,1.3,6.1,2,8.4,2c3.7,0,5.4-2.2,5.4-4.1c0-3.5-3.7-4.5-6.9-6.1c-5.1-2.5-7.9-4.7-7.9-9.5
			c0-3.4,1.8-9.6,10.7-9.6c3.2,0,6.6,0.3,9.7,1.5L76,56.9c-2-0.8-4.9-1.7-7.4-1.7c-4.2,0-5.1,2.2-5.1,3.6c0,2.7,2.4,3.9,4.5,4.9
			c5.7,2.4,10.3,4.4,10.3,11.2c0,5.4-4.2,9.9-13,9.9c-3.3,0-6.3-0.7-8.8-1.7L57.2,77.2z"/>
		<path class="st0" d="M115.2,67.4c0,12.3-8.3,17.4-16.7,17.4s-16.7-5.1-16.7-17.4c0-12.3,8.3-17.4,16.7-17.4S115.2,55.1,115.2,67.4
			z M89.2,67.4c0,11.5,6.8,12.5,9.4,12.5s9.4-1,9.4-12.5c0-11.5-6.8-12.5-9.4-12.5S89.2,55.9,89.2,67.4z"/>
		<path class="st0" d="M132.6,50.4c9.1,0,11.4,4.7,11.4,9.2c0,5.6-4.2,7.3-6.6,7.9v0.1c1.7,0.4,2.7,1.7,3.5,3.6l5.5,13.2h-7.7
			l-4.4-10.8c-0.8-2-2.1-3.2-4.4-3.2h-2.6v14h-6.9v-34H132.6z M127.5,65.1h3.7c4.4,0,5.8-2.7,5.8-4.7c0-1.1-0.3-4.6-5.8-4.6h-3.7
			V65.1z"/>
		<path class="st0" d="M174.2,50.4v6h-9.8v28h-6.9v-28h-9.8v-6H174.2z"/>
		<path class="st0" d="M215.8,66.1c-0.4,5.5-1.9,8.6-3.9,11.6l5.9,6.7h-6.1l-2.8-3.3c-2.4,2.7-5.4,3.8-9.7,3.8
			c-6.7,0-10.9-3.8-10.9-9.4c0-5.2,3-8.1,7.6-9.9c-1.8-2.2-3.5-4.5-3.5-7.7c0-5.4,4-8,8.8-8c4.4,0,8.4,2.3,8.4,7.7
			c0,4.3-3.8,7.2-7.4,8.8l6.9,7.9c1.3-2.1,1.8-4.3,2.1-8.2H215.8z M198.2,68.5c-2.6,1.7-4.8,3.4-4.8,6.7c0,3.6,3.2,6,6.7,6
			c3.2,0,5.2-1.9,6.3-3.2L198.2,68.5z M205.1,57.8c0-3.1-1.7-4.2-4-4.2c-2.2,0-4.1,1.5-4.1,4.4c0,2.3,1.6,4.1,3,5.7
			C202,62.7,205.1,60.7,205.1,57.8z"/>
		<path class="st0" d="M234,77.2c2.7,1.3,6.1,2,8.4,2c3.7,0,5.4-2.2,5.4-4.1c0-3.5-3.7-4.5-6.9-6.1c-5.1-2.5-7.9-4.7-7.9-9.5
			c0-3.4,1.8-9.6,10.7-9.6c3.2,0,6.6,0.3,9.7,1.5l-0.7,5.4c-2-0.8-4.9-1.7-7.4-1.7c-4.2,0-5.1,2.2-5.1,3.6c0,2.7,2.4,3.9,4.5,4.9
			c5.7,2.4,10.3,4.4,10.3,11.2c0,5.4-4.2,9.9-13,9.9c-3.3,0-6.3-0.7-8.8-1.7L234,77.2z"/>
		<path class="st0" d="M270.4,50.4c12.3,0,13.1,8.5,13.1,10.6c0,4.5-3.1,10.6-11.8,10.6h-4.4v12.8h-6.9v-34H270.4z M270.4,66.3
			c4.2,0,5.8-2.9,5.8-5.4c0-2.8-1.8-5.1-5.8-5.1h-3.2v10.5H270.4z"/>
		<path class="st0" d="M303.6,50.4l13.5,34h-7.8l-2.9-7.7h-14l-2.9,7.7h-7.4l13.6-34H303.6z M304.4,71.1l-5-13.9h-0.1l-4.7,13.9
			H304.4z"/>
	</g>
	<g>
		<path class="st0" d="M80.2,98.6L75,117.9h-5l-2.9-12.5l-0.7-3.7h-0.1l-0.6,3.7L63,117.9h-5l-5.3-19.3h4.1l2.9,11.5l0.8,4.4h0.1
			l0.8-4.4l2.6-11.5h5.3l2.7,11.5l0.8,4.4h0.1l0.8-4.4l2.8-11.5H80.2z"/>
		<path class="st0" d="M82.6,98.6h3.9v19.3h-3.9V98.6z"/>
		<path class="st0" d="M103.8,98.6v3.4h-5.6v15.9h-3.9V102h-5.6v-3.4H103.8z"/>
		<path class="st0" d="M109.9,98.6v7.8h7.8v-7.8h3.9v19.3h-3.9v-8.3h-7.8v8.3H106V98.6H109.9z"/>
		<path class="st0" d="M138,98.6c3.4,0,10.5,0.7,10.5,9.6c0,4.2-1.6,9.6-10.5,9.6h-6.1V98.6H138z M135.8,114.7h2.2
			c1.2,0,6.3-0.2,6.3-6.4c0-6.2-5.1-6.4-6.3-6.4h-2.2V114.7z"/>
		<path class="st0" d="M169.7,108.3c0,7-4.7,9.9-9.4,9.9s-9.4-2.9-9.4-9.9c0-7,4.7-9.9,9.4-9.9S169.7,101.3,169.7,108.3z M155,108.3
			c0,6.5,3.9,7.1,5.3,7.1s5.3-0.6,5.3-7.1s-3.9-7.1-5.3-7.1S155,101.7,155,108.3z"/>
		<path class="st0" d="M176.8,98.6v16h7.7v3.3h-11.6V98.6H176.8z"/>
		<path class="st0" d="M192.5,98.6c7,0,7.4,4.8,7.4,6c0,2.5-1.8,6-6.7,6h-2.5v7.2h-3.9V98.6H192.5z M192.5,107.6
			c2.4,0,3.3-1.6,3.3-3.1c0-1.6-1-2.9-3.3-2.9h-1.8v6H192.5z"/>
		<path class="st0" d="M206.4,98.6v7.8h7.8v-7.8h3.9v19.3h-3.9v-8.3h-7.8v8.3h-3.9V98.6H206.4z"/>
		<path class="st0" d="M222.1,98.6h3.9v19.3h-3.9V98.6z"/>
		<path class="st0" d="M235.1,98.6l6.7,12.1l1,2.6h0.1l-0.1-3.4V98.6h3.9v19.3h-5.1l-6.7-12.6l-1-2.1h-0.1l0.1,3.4v11.3H230V98.6
			H235.1z"/>
		<path class="st0" d="M250.5,113.8c1.5,0.7,3.5,1.2,4.8,1.2c2.1,0,3.1-1.2,3.1-2.3c0-2-2.1-2.6-3.9-3.4c-2.9-1.4-4.5-2.6-4.5-5.4
			c0-1.9,1-5.4,6.1-5.4c1.8,0,3.7,0.2,5.5,0.8l-0.4,3.1c-1.1-0.5-2.8-0.9-4.2-0.9c-2.4,0-2.9,1.2-2.9,2c0,1.5,1.3,2.2,2.6,2.8
			c3.2,1.4,5.8,2.5,5.8,6.3c0,3.1-2.4,5.6-7.4,5.6c-1.9,0-3.6-0.4-5-1L250.5,113.8z"/>
	</g>
</g>
</svg>
